<?xml version="1.0" encoding="UTF-8"?>
<!-- Generated by Pixelmator Pro 3.4.3 -->
<svg width="450" height="450" viewBox="0 0 450 450" xmlns="http://www.w3.org/2000/svg">
    <g id="Associer">
        <path id="Trac" fill="#9EB1FF" stroke="none" d="M 225.960083 39.592865 C 218.422592 47.130371 207.367599 60.195313 201.337585 68.737823 C 190.78511 83.812805 190.282623 83.812805 140.032654 84.315308 C 111.892677 84.817841 87.772697 86.325317 86.265205 87.832825 C 83.250214 90.847809 77.220207 130.545288 71.190224 186.825226 C 68.175224 211.950195 69.682716 216.472702 81.240204 230.542679 C 106.365181 260.692657 127.470177 267.225159 197.317596 267.727661 C 231.990082 267.727661 260.130066 268.230164 260.130066 269.235168 C 260.130066 275.767639 234.000076 344.610077 225.457565 360.187561 C 215.407593 379.785034 210.382584 423 218.925079 423 C 229.477554 423 252.59256 389.835022 282.240021 332.550079 C 299.827515 297.877625 324.952484 252.652664 337.514984 232.050171 C 350.077454 211.447708 360.629944 192.855225 360.629944 190.342743 C 360.629944 187.8302 364.649933 179.790222 370.177429 172.755219 C 377.212402 162.202759 379.222443 150.645233 379.222443 122.002777 C 378.71994 98.887817 377.212402 88.83783 374.699921 94.365326 C 372.187439 99.892822 357.112457 135.570251 340.529968 174.262726 C 315.907471 232.552673 309.375 244.110168 301.335022 243.105164 C 293.295013 242.100174 287.767517 251.145172 270.180023 294.86261 C 244.552551 357.172546 233.497574 366.21756 255.607544 305.917603 C 280.732544 239.085175 281.737518 236.572678 278.722534 233.557678 C 277.215027 232.050171 283.747528 208.432693 293.797516 181.297729 C 311.38501 132.052795 312.389984 119.490295 298.320007 131.04776 C 294.300018 134.565277 282.240021 136.575256 271.687531 135.570251 C 257.115051 134.565277 252.090042 131.550262 251.085052 124.012756 C 249.075058 110.947784 267.165009 94.365326 291.285004 86.82782 C 310.882507 80.295319 318.420013 68.235352 312.892487 51.15036 C 309.375 39.592865 300.330017 37.582855 300.330017 48.135345 C 300.330017 63.210327 288.772522 62.707855 275.70752 47.130371 C 256.110046 24.517883 243.045074 22.507874 225.960083 39.592865 Z"/>
    </g>
</svg>
